<svg width="280" height="258" viewBox="0 0 280 258" fill="none" xmlns="http://www.w3.org/2000/svg">
<path fill-rule="evenodd" clip-rule="evenodd" d="M164 10C156.551 10 149.491 11.6261 143.147 14.5414C143.925 15.6151 144.64 16.7547 145.282 17.9577C148.412 23.8222 149.334 30.2904 148.332 36.3847C147.884 39.1096 145.312 40.9555 142.587 40.5076C139.863 40.0598 138.017 37.4878 138.465 34.7629C139.122 30.7604 138.52 26.5259 136.46 22.6661C131.483 13.3422 119.891 9.81771 110.567 14.794C103.604 18.51 99.8662 25.9216 100.507 33.335C100.744 36.0862 98.7065 38.5091 95.9553 38.7467C93.2041 38.9844 90.7812 36.9467 90.5436 34.1955C90.2515 30.8133 90.5586 27.4277 91.4192 24.1923C89.964 24.065 88.4901 24 87 24C61.9846 24 42.5228 39.3971 38.6894 62.1082C45.1815 62.6328 51.1511 65.039 56.0385 68.7787C58.2315 70.4568 58.649 73.595 56.9709 75.788C55.2928 77.9811 52.1546 78.3985 49.9615 76.7204C46.0898 73.7578 41.2573 72 36 72C23.2975 72 13 82.2975 13 95C13 104.487 18.745 112.644 26.9659 116.159C29.5049 117.245 30.683 120.184 29.5973 122.723C28.5115 125.262 25.5731 126.44 23.0341 125.354C18.6156 123.464 14.6914 120.637 11.5129 117.121C10.4482 120.407 10 124.172 10 129C10 149.435 26.5655 166 47 166C53.0336 166 57.3243 165.369 60.8743 163.942C63.2372 162.992 65.4472 161.617 67.7094 159.579C62.3495 154.561 59 147.422 59 139.5C59 134.116 60.5526 129.078 63.2365 124.83C64.7112 122.495 67.7994 121.798 70.134 123.273C72.4686 124.748 73.1657 127.836 71.6909 130.17C69.9869 132.868 69 136.061 69 139.5C69 149.165 76.835 157 86.5 157C94.1118 157 100.601 152.137 103.006 145.334C103.926 142.73 106.782 141.366 109.386 142.286C111.99 143.206 113.354 146.063 112.434 148.666C108.661 159.34 98.4815 167 86.5 167C82.9344 167 79.5272 166.321 76.4007 165.086C72.8109 168.76 69.0256 171.442 64.6048 173.22C59.3768 175.322 53.645 176 47 176C40.5503 176 34.404 174.701 28.8085 172.35C38.7355 188.52 56.7747 192.746 66.3987 193.516L65.6013 203.484C61.7393 203.175 56.3367 202.335 50.4321 200.431C49.2472 202.09 48.052 204.243 46.8854 206.882C44.9855 211.178 43.3477 216.326 41.9703 221.734C39.8099 230.217 38.3655 239.038 37.5294 245.623L50.2001 247.131C51.1143 245.425 52.3285 243.164 53.6019 240.809C56.1773 236.047 59.1573 230.596 60.2725 228.83L60.3683 228.678L60.4747 228.534C64.776 222.696 69.5256 220.251 75.0573 218.092C76.2704 217.619 77.5143 217.16 78.8118 216.681L78.8133 216.68C83.3064 215.022 88.4424 213.127 95.1662 209.578C101.426 206.274 104.527 202.299 106.082 198.805C106.693 197.43 107.087 196.079 107.325 194.809C99.3845 194.142 93.0097 191.753 86.1786 188.172C83.7328 186.89 82.7895 183.868 84.0716 181.423C85.3537 178.977 88.3757 178.034 90.8214 179.316C97.946 183.05 103.821 185 112 185C117.234 185 122.274 184.197 127.007 182.71C127.084 181.327 127.731 179.982 128.904 179.057C131.073 177.348 134.217 177.719 135.926 179.888C142.71 188.491 153.21 194 165 194C185.435 194 202 177.435 202 157C202 148.939 199.428 141.493 195.059 135.42C193.446 133.178 193.956 130.054 196.198 128.441C198.439 126.829 201.564 127.339 203.177 129.58C206.945 134.819 209.663 140.868 211.02 147.411C218.494 145.418 224 138.602 224 130.5C224 127.739 226.239 125.5 229 125.5C231.761 125.5 234 127.739 234 130.5C234 143.805 224.551 154.903 211.998 157.45C211.954 162.157 211.218 166.698 209.887 170.978C213.15 171.648 216.532 172 220 172C247.614 172 270 149.614 270 122C270 112.105 267.13 102.889 262.173 95.1276C259.882 99.1299 256.7 102.368 253.001 104.699C250.665 106.171 247.578 105.471 246.105 103.135C244.633 100.799 245.333 97.7113 247.669 96.2389C250.369 94.5376 252.634 92.0802 254.114 88.9762C258.275 80.2525 254.575 69.8079 245.852 65.6474C238.981 62.3708 231.031 63.9665 225.932 69.0724C223.981 71.0262 220.815 71.0283 218.861 69.0769C216.907 67.1256 216.905 63.9597 218.856 62.0059C223.977 56.879 230.934 53.9964 238.115 53.9376C238.413 50.6008 237.913 47.1446 236.498 43.8391C231.939 33.1941 219.613 28.2605 208.968 32.8195C206.43 33.9067 203.491 32.7302 202.404 30.1918C202.034 29.3293 201.926 28.4205 202.044 27.5539C192.867 16.8035 179.229 10 164 10ZM205.82 180.313C210.37 181.416 215.12 182 220 182C253.137 182 280 155.137 280 122C280 107.21 274.643 93.6603 265.77 83.2021C266.464 72.3184 260.602 61.6031 250.156 56.6213C249.439 56.2794 248.715 55.9712 247.985 55.6962C248.599 50.4899 247.898 45.0563 245.69 39.9021C239.705 25.9281 224.659 18.618 210.348 21.8937C199.35 8.53293 182.671 0 164 0C153.666 0 143.93 2.6166 135.433 7.22537C126.829 1.65728 115.54 0.804563 105.858 5.97186C101.785 8.1458 98.4402 11.1482 95.9191 14.6591C93.0065 14.2247 90.028 14 87 14C56.7879 14 32.1481 33.5357 28.4719 62.8626C13.8739 66.2687 3 79.3645 3 95C3 99.2225 3.79296 103.259 5.23748 106.968C1.28578 113.501 0 120.361 0 129C0 142.068 5.33332 153.89 13.9421 162.409C18.5613 180.492 29.7264 190.776 41.0103 196.551C39.7885 198.519 38.7055 200.653 37.7396 202.837C35.5353 207.822 33.7356 213.549 32.2797 219.266C29.3671 230.702 27.7077 242.588 27.0242 249.509L26.5425 254.386L31.4089 254.965L52.4089 257.465L55.805 257.869L57.4129 254.851L53 252.5C57.4129 254.851 57.4129 254.851 57.413 254.851L57.4133 254.85L57.4145 254.848L57.4195 254.838L57.4397 254.801L57.519 254.652L57.8227 254.083C58.0856 253.59 58.4635 252.883 58.9233 252.025C59.8432 250.307 61.0898 247.985 62.3981 245.566C64.9859 240.78 67.6631 235.898 68.6355 234.318C71.2992 230.761 74.0386 229.224 78.6927 227.408C79.7095 227.011 80.8207 226.602 82.0284 226.157L82.0285 226.157C86.5647 224.485 92.4626 222.312 99.8338 218.422C107.974 214.126 112.706 208.517 115.218 202.87C116.482 200.03 117.148 197.263 117.444 194.756C122.809 194.273 127.975 193.083 132.845 191.279C141.248 199.163 152.56 204 165 204C182.474 204 197.72 194.465 205.82 180.313Z" fill="black"/>
</svg>
