<svg width="257" height="287" viewBox="0 0 257 287" fill="none" xmlns="http://www.w3.org/2000/svg">
<rect width="257" height="287" fill="none"/>
<g id="Brain">
<path id="head" d="M35.9148 283.116C41.1577 271.622 45.594 244.089 45.594 227.763C45.594 206.288 38.9395 196.609 32.5876 185.115C26.1703 173.502 -7.64144 150.33 7.48226 86.8106C19.5812 35.995 69.1551 1.69968 116.978 3.93276C168.664 6.34627 212.515 31.205 225.566 81.6686C230.103 99.2121 233.502 98.8099 231.918 111.311C231.403 115.379 225.566 120.204 225.566 124.317C225.566 129.459 258.162 169.312 253.091 172.411C247.647 175.738 235.548 178.158 235.548 178.158C233.229 181.082 233.43 186.93 236.153 190.559C242.736 199.337 237.362 202.356 230.103 204.171C226.473 204.775 237.363 206.605 237.665 212.035C237.967 217.479 230.406 217.177 229.801 222.016C229.196 226.856 234.338 231.091 233.43 239.862C232.523 248.634 226.473 253.171 220.121 256.499C215.04 259.16 189.672 254.583 174.75 252.566C171.625 251.558 165.616 256.922 166.584 286.443" stroke="#363434" stroke-width="6"/>
<path id="brain_2" fill-rule="evenodd" clip-rule="evenodd" d="M156.795 140.236C159.548 140.903 162.421 141.256 165.374 141.256C185.42 141.256 201.671 125.005 201.671 104.959C201.671 96.012 198.43 87.815 193.062 81.4884C193.482 74.9043 189.936 68.4221 183.617 65.4084C183.183 65.2015 182.745 65.0151 182.303 64.8487C182.675 61.6992 182.25 58.4121 180.915 55.2941C177.294 46.8405 168.192 42.4184 159.534 44.3999C152.882 36.3174 142.792 31.1554 131.497 31.1554C125.245 31.1554 119.355 32.7383 114.215 35.5264C109.01 32.158 102.181 31.6421 96.3239 34.7681C93.8598 36.0832 91.8363 37.8995 90.3112 40.0234C88.5492 39.7606 86.7474 39.6247 84.9156 39.6247C66.6388 39.6247 51.733 51.4427 49.5091 69.184C40.6781 71.2446 34.1 79.1668 34.1 88.6255C34.1 91.1799 34.5797 93.6216 35.4535 95.8658C33.063 99.8174 32.2851 103.967 32.2851 109.194C32.2851 117.099 35.5115 124.251 40.7194 129.405C43.5137 140.343 50.2681 146.565 57.0942 150.058C56.3551 151.249 55.6999 152.54 55.1156 153.861C53.7821 156.877 52.6934 160.342 51.8126 163.8C50.0507 170.718 49.0468 177.909 48.6334 182.095L48.342 185.045L66.0442 187.153L67.0169 185.327L64.3474 183.905C67.0169 185.327 67.0169 185.327 67.0169 185.327L67.0179 185.325L67.2649 184.862C67.4239 184.564 67.6525 184.137 67.9307 183.617C68.4871 182.578 69.2413 181.174 70.0327 179.71C71.5982 176.815 73.2178 173.862 73.806 172.905C75.4174 170.754 77.0746 169.824 79.8901 168.725C80.5052 168.485 81.1774 168.238 81.908 167.968C84.6522 166.957 88.2202 165.643 92.6794 163.289C97.6037 160.69 100.466 157.298 101.986 153.881C102.75 152.163 103.154 150.489 103.332 148.973C106.578 148.681 109.703 147.961 112.649 146.869C117.733 151.639 124.576 154.565 132.102 154.565C142.672 154.565 151.895 148.796 156.795 140.236ZM131.497 37.2049C126.99 37.2049 122.719 38.1886 118.882 39.9522C119.353 40.6017 119.785 41.2911 120.173 42.0189C122.067 45.5666 122.624 49.4795 122.018 53.1663C121.747 54.8147 120.192 55.9313 118.543 55.6604C116.895 55.3895 115.778 53.8336 116.049 52.1852C116.447 49.7638 116.082 47.2022 114.836 44.8673C111.826 39.2267 104.813 37.0946 99.1723 40.105C94.9603 42.353 92.699 46.8366 93.0863 51.3214C93.2301 52.9857 91.9974 54.4514 90.3331 54.5952C88.6688 54.7389 87.203 53.5063 87.0593 51.8419C86.8826 49.7958 87.0684 47.7477 87.589 45.7905C86.7087 45.7135 85.8171 45.6742 84.9156 45.6742C69.7826 45.6742 58.0092 54.9886 55.6902 68.7277C59.6176 69.045 63.2289 70.5006 66.1855 72.763C67.5122 73.7781 67.7647 75.6766 66.7495 77.0032C65.7344 78.3299 63.8359 78.5825 62.5093 77.5673C60.1671 75.7751 57.2437 74.7117 54.0633 74.7117C46.3789 74.7117 40.1494 80.9411 40.1494 88.6255C40.1494 94.3647 43.6249 99.2991 48.5981 101.426C50.1341 102.083 50.8468 103.86 50.1899 105.396C49.5331 106.932 47.7555 107.645 46.2195 106.988C43.5466 105.845 41.1726 104.135 39.2498 102.008C38.6057 103.995 38.3346 106.273 38.3346 109.194C38.3346 121.556 48.3558 131.577 60.7177 131.577C64.3677 131.577 66.9634 131.195 69.1109 130.332C70.5403 129.757 71.8773 128.926 73.2458 127.692C70.0033 124.657 67.9771 120.338 67.9771 115.546C67.9771 112.288 68.9163 109.241 70.5399 106.671C71.4321 105.259 73.3002 104.837 74.7126 105.729C76.1249 106.621 76.5466 108.489 75.6544 109.902C74.6236 111.534 74.0265 113.465 74.0265 115.546C74.0265 121.392 78.7663 126.132 84.6131 126.132C89.2179 126.132 93.1433 123.191 94.5981 119.075C95.1548 117.5 96.8829 116.674 98.4579 117.231C100.033 117.788 100.858 119.516 100.302 121.091C98.0194 127.548 91.8613 132.182 84.6131 132.182C82.4561 132.182 80.395 131.771 78.5036 131.024C76.3319 133.246 74.042 134.869 71.3677 135.944C68.205 137.216 64.7375 137.626 60.7177 137.626C56.8159 137.626 53.0977 136.84 49.7128 135.418C55.7181 145.2 66.6309 147.757 72.4529 148.222L71.9705 154.253C69.6342 154.066 66.3659 153.557 62.7939 152.406C62.0771 153.409 61.3541 154.712 60.6483 156.308C59.499 158.907 58.5082 162.021 57.675 165.293C56.3681 170.425 55.4942 175.761 54.9885 179.745L62.6536 180.657C63.2066 179.625 63.9411 178.257 64.7115 176.832C66.2695 173.951 68.0722 170.654 68.7469 169.586L68.8048 169.494L68.8692 169.407C71.4713 165.875 74.3445 164.396 77.6909 163.09C78.4247 162.803 79.1772 162.526 79.9622 162.236C82.6803 161.233 85.7881 160.086 89.8557 157.939C93.6427 155.941 95.5187 153.536 96.459 151.422C96.8291 150.59 97.0672 149.773 97.2114 149.005C92.4076 148.601 88.5512 147.156 84.4187 144.99C82.9391 144.214 82.3685 142.386 83.1441 140.907C83.9197 139.427 85.7478 138.856 87.2274 139.632C91.5374 141.891 95.0914 143.071 100.039 143.071C103.206 143.071 106.255 142.585 109.118 141.686C109.164 140.849 109.556 140.035 110.265 139.476C111.577 138.441 113.479 138.666 114.513 139.978C118.617 145.183 124.969 148.515 132.102 148.515C144.463 148.515 154.485 138.494 154.485 126.132C154.485 121.256 152.929 116.752 150.286 113.077C149.31 111.721 149.619 109.831 150.975 108.856C152.331 107.88 154.221 108.189 155.196 109.545C157.476 112.714 159.12 116.373 159.941 120.331C164.463 119.126 167.793 115.002 167.793 110.101C167.793 108.431 169.148 107.076 170.818 107.076C172.489 107.076 173.843 108.431 173.843 110.101C173.843 118.15 168.127 124.864 160.533 126.405C160.506 129.252 160.061 131.999 159.256 134.588C161.23 134.993 163.276 135.206 165.374 135.206C182.079 135.206 195.621 121.664 195.621 104.959C195.621 98.9734 193.885 93.3976 190.886 88.7027C189.5 91.1238 187.575 93.0826 185.338 94.4927C183.925 95.3834 182.057 94.9599 181.166 93.5466C180.275 92.1334 180.699 90.2657 182.112 89.3749C183.745 88.3458 185.115 86.8592 186.011 84.9814C188.528 79.704 186.29 73.3855 181.013 70.8687C176.856 68.8865 172.047 69.8518 168.962 72.9406C167.782 74.1226 165.867 74.1238 164.685 72.9434C163.503 71.7629 163.501 69.8477 164.682 68.6657C167.779 65.5642 171.988 63.8204 176.332 63.7848C176.513 61.7663 176.21 59.6755 175.354 57.6758C172.596 51.2361 165.14 48.2515 158.7 51.0095C157.165 51.6672 155.387 50.9555 154.729 49.4199C154.505 48.8981 154.44 48.3484 154.511 47.8241C148.96 41.3207 140.709 37.2049 131.497 37.2049Z" fill="#363434"/>
<path id="blitz" d="M134.521 99.7767L110.976 66.8474V90.037H99.4344L122.518 122.503V99.7767H134.521Z" stroke="#F8DC49" stroke-width="5" stroke-linejoin="round"/>
</g>
</svg>
