<svg width="200" height="122" viewBox="0 0 200 122" fill="none" xmlns="http://www.w3.org/2000/svg">
<g id="discount">
<rect id="card" x="1.50602" y="2.26506" width="196.988" height="117.47" rx="3.31325" fill="white" stroke="#5E44FF" stroke-width="3.01205"/>
<path id="close" fill-rule="evenodd" clip-rule="evenodd" d="M185.924 13.1299C185.354 12.5241 184.43 12.5241 183.86 13.1299C183.29 13.7357 183.29 14.7178 183.86 15.3236L184.934 16.4646L183.86 17.6056C183.29 18.2114 183.29 19.1936 183.86 19.7994C184.43 20.4051 185.354 20.4051 185.924 19.7994L186.998 18.6583L188.072 19.7994C188.641 20.4051 189.566 20.4051 190.136 19.7994C190.705 19.1936 190.705 18.2114 190.136 17.6056L189.062 16.4646L190.136 15.3236C190.705 14.7178 190.705 13.7357 190.136 13.1299C189.566 12.5241 188.641 12.5241 188.072 13.1299L186.998 14.2709L185.924 13.1299Z" fill="#141414"/>
<path id="text" fill-rule="evenodd" clip-rule="evenodd" d="M16.8675 38.4096C16.0357 38.4096 15.3615 39.0839 15.3615 39.9156C15.3615 40.7474 16.0357 41.4217 16.8675 41.4217L82.6744 41.4217C83.5062 41.4217 84.1805 40.7474 84.1805 39.9156C84.1805 39.0839 83.5062 38.4096 82.6744 38.4096L16.8675 38.4096ZM16.8675 52.8674C16.0357 52.8674 15.3615 53.5417 15.3615 54.3735C15.3615 55.2052 16.0357 55.8795 16.8675 55.8795L82.6744 55.8795C83.5062 55.8795 84.1805 55.2052 84.1805 54.3735C84.1805 53.5417 83.5062 52.8674 82.6744 52.8674L16.8675 52.8674ZM15.3615 68.8313C15.3615 67.9995 16.0357 67.3253 16.8675 67.3253L82.6744 67.3253C83.5062 67.3253 84.1805 67.9995 84.1805 68.8313C84.1805 69.6631 83.5062 70.3373 82.6744 70.3373L16.8675 70.3373C16.0357 70.3373 15.3615 69.663 15.3615 68.8313ZM16.8675 81.7831C16.0357 81.7831 15.3615 82.4574 15.3615 83.2891C15.3615 84.1209 16.0357 84.7951 16.8675 84.7951L82.6744 84.7952C83.5062 84.7952 84.1805 84.1209 84.1805 83.2891C84.1805 82.4574 83.5062 81.7831 82.6744 81.7831L16.8675 81.7831Z" fill="#FF1E1E"/>
<path id="Star 1" d="M151.768 29.5246L156.22 25.9095L157.513 31.497L158.282 34.8195L161.484 33.646L166.869 31.6724L166.278 37.377L165.926 40.7692L169.336 40.6989L175.07 40.5808L172.658 45.7843L171.225 48.8786L174.472 49.9192L179.934 51.6693L175.963 55.8079L173.602 58.2688L176.336 60.3076L180.934 63.7363L175.835 66.3614L172.803 67.9224L174.726 70.7384L177.961 75.4741L172.286 76.3013L168.911 76.7932L169.817 80.0813L171.339 85.6108L165.702 84.5504L162.351 83.9199L162.139 87.3237L161.784 93.0479L156.797 90.2149L153.832 88.5303L152.526 91.6809L150.331 96.9794L146.535 92.6808L144.277 90.1246L142.02 92.6808L138.223 96.9794L136.028 91.6809L134.723 88.5303L131.757 90.2149L126.771 93.0479L126.415 87.3237L126.203 83.9199L122.852 84.5504L117.215 85.6108L118.738 80.0813L119.643 76.7932L116.268 76.3013L110.593 75.4741L113.828 70.7384L115.752 67.9224L112.72 66.3614L107.62 63.7362L112.218 60.3076L114.952 58.2688L112.591 55.8078L108.62 51.6693L114.082 49.9192L117.33 48.8786L115.896 45.7843L113.484 40.5808L119.218 40.6989L122.628 40.7692L122.276 37.377L121.685 31.6724L127.07 33.646L130.272 34.8195L131.041 31.497L132.334 25.9095L136.786 29.5246L139.434 31.6743L141.24 28.7814L144.277 23.9165L147.314 28.7814L149.12 31.6743L151.768 29.5246Z" fill="white" stroke="#FF00B8" stroke-width="6.0241"/>
<path id="percentage" d="M145.102 69.9868V68.6006C145.102 67.4882 145.342 66.4614 145.821 65.5201C146.309 64.5788 147.014 63.8216 147.939 63.2482C148.863 62.6749 149.988 62.3883 151.314 62.3883C152.675 62.3883 153.817 62.6706 154.741 63.2354C155.674 63.8002 156.38 64.5532 156.859 65.4944C157.338 66.4357 157.578 67.4711 157.578 68.6006V69.9868C157.578 71.0992 157.334 72.1261 156.846 73.0673C156.367 74.0086 155.661 74.7659 154.729 75.3392C153.796 75.9125 152.658 76.1992 151.314 76.1992C149.971 76.1992 148.837 75.9125 147.913 75.3392C146.989 74.7659 146.287 74.0086 145.808 73.0673C145.337 72.1261 145.102 71.0992 145.102 69.9868ZM149.569 68.6006V69.9868C149.569 70.4746 149.689 70.9581 149.928 71.4372C150.176 71.9079 150.638 72.1432 151.314 72.1432C152.025 72.1432 152.491 71.9122 152.713 71.4501C152.944 70.988 153.06 70.5003 153.06 69.9868V68.6006C153.06 68.0872 152.953 67.5909 152.739 67.1117C152.525 66.6325 152.05 66.3929 151.314 66.3929C150.638 66.3929 150.176 66.6325 149.928 67.1117C149.689 67.5909 149.569 68.0872 149.569 68.6006ZM131.342 54.9437V53.5575C131.342 52.428 131.586 51.3926 132.074 50.4513C132.57 49.51 133.281 48.757 134.205 48.1923C135.129 47.6275 136.246 47.3451 137.555 47.3451C138.915 47.3451 140.058 47.6275 140.982 48.1923C141.915 48.757 142.62 49.51 143.1 50.4513C143.579 51.3926 143.818 52.428 143.818 53.5575V54.9437C143.818 56.0732 143.575 57.1043 143.087 58.0371C142.608 58.9698 141.902 59.7142 140.969 60.2704C140.036 60.8266 138.898 61.1047 137.555 61.1047C136.211 61.1047 135.078 60.8223 134.153 60.2576C133.229 59.6928 132.528 58.9441 132.048 58.0114C131.578 57.0787 131.342 56.0561 131.342 54.9437ZM135.86 53.5575V54.9437C135.86 55.4571 135.98 55.9449 136.22 56.407C136.459 56.869 136.904 57.1001 137.555 57.1001C138.265 57.1001 138.731 56.869 138.954 56.407C139.185 55.9449 139.3 55.4571 139.3 54.9437V53.5575C139.3 53.0441 139.193 52.5478 138.979 52.0686C138.766 51.5894 138.291 51.3498 137.555 51.3498C136.879 51.3498 136.425 51.5979 136.194 52.0942C135.972 52.582 135.86 53.0697 135.86 53.5575ZM133.524 74.9156L151.597 48.6287H155.242L137.17 74.9156H133.524Z" fill="#F8DC49"/>
</g>
</svg>
