<svg width="424" height="474" viewBox="0 0 424 474" fill="none" xmlns="http://www.w3.org/2000/svg">
<path d="M59 467.5C67.6667 448.5 75 402.987 75 376C75 340.5 64 324.5 53.5 305.5C42.892 286.304 -13 248 12 143C32 59 113.947 2.30864 193 6C278.44 9.98961 350.926 51.0819 372.5 134.5C380 163.5 385.618 162.835 383 183.5C382.148 190.224 372.5 198.2 372.5 205C372.5 213.5 426.382 279.378 418 284.5C409 290 389 294 389 294C385.167 298.833 385.5 308.5 390 314.5C400.882 329.01 392 334 380 337C374 338 392.001 341.025 392.5 350C393 359 380.5 358.5 379.5 366.5C378.5 374.5 387 381.5 385.5 396C384 410.5 374 418 363.5 423.5C355.1 427.9 313.167 420.333 288.5 417C283.333 415.333 273.4 424.2 275 473" stroke="black" stroke-width="10"/>
</svg>
