<svg width="188" height="283" viewBox="0 0 188 283" fill="none" xmlns="http://www.w3.org/2000/svg">
<g id="space">
<rect id="phone" x="2.5" y="2.5" width="182.22" height="277.61" rx="5.5" fill="#141414" fill-opacity="0.5" stroke="#141414" stroke-width="5"/>
<g id="modal">
<rect id="modal-box" x="2.5" y="129.924" width="182.22" height="150.186" rx="5.5" fill="white" stroke="#141414" stroke-width="5"/>
<path id="modal-content" fill-rule="evenodd" clip-rule="evenodd" d="M162.393 138.189C163.369 137.213 164.952 137.213 165.928 138.189L169.194 141.455L172.46 138.189C173.436 137.213 175.019 137.213 175.996 138.189C176.972 139.166 176.972 140.749 175.996 141.725L172.73 144.991L175.996 148.257C176.972 149.233 176.972 150.816 175.996 151.792C175.019 152.769 173.436 152.769 172.46 151.792L169.194 148.526L165.928 151.792C164.952 152.769 163.369 152.769 162.393 151.792C161.416 150.816 161.416 149.233 162.393 148.257L165.659 144.991L162.393 141.725C161.416 140.749 161.416 139.166 162.393 138.189ZM11.7372 189.356C11.7372 187.975 12.8565 186.856 14.2372 186.856L171.559 186.856C172.94 186.856 174.059 187.975 174.059 189.356C174.059 190.737 172.94 191.856 171.559 191.856L14.2372 191.856C12.8565 191.856 11.7372 190.737 11.7372 189.356ZM11.7372 206.441C11.7372 205.06 12.8565 203.941 14.2372 203.941L171.559 203.941C172.94 203.941 174.059 205.06 174.059 206.441C174.059 207.821 172.94 208.941 171.559 208.941L14.2372 208.941C12.8565 208.941 11.7372 207.821 11.7372 206.441ZM14.2372 221.025C12.8565 221.025 11.7372 222.145 11.7372 223.525C11.7372 224.906 12.8565 226.025 14.2372 226.025L171.559 226.025C172.94 226.025 174.059 224.906 174.059 223.525C174.059 222.145 172.94 221.025 171.559 221.025L14.2372 221.025ZM13.5254 252C13.5254 245.709 18.6248 240.61 24.9152 240.61H160.881C167.172 240.61 172.271 245.709 172.271 252C172.271 258.29 167.172 263.39 160.881 263.39H24.9152C18.6248 263.39 13.5254 258.29 13.5254 252Z" fill="#141414"/>
</g>
</g>
</svg>
