<svg width="130" height="200" viewBox="0 0 130 200" fill="none" xmlns="http://www.w3.org/2000/svg">
<g id="space">
<rect id="phone" x="2.5" y="2.5" width="124.847" height="195" rx="5.5" fill="white" stroke="#141414" stroke-width="5"/>
<g id="modal">
<rect id="modal-box" x="2.5" y="87.6835" width="125" height="109.529" rx="5.5" fill="white" stroke="#141414" stroke-width="5"/>
<path id="modal-content" fill-rule="evenodd" clip-rule="evenodd" d="M112.275 92.6126C113.221 91.607 114.755 91.607 115.701 92.6126L117.483 94.5066L119.265 92.6125C120.211 91.607 121.745 91.607 122.692 92.6125C123.638 93.6181 123.638 95.2485 122.692 96.2541L120.909 98.1482L122.692 100.042C123.638 101.048 123.638 102.678 122.692 103.684C121.745 104.689 120.211 104.689 119.265 103.684L117.483 101.79L115.701 103.684C114.755 104.689 113.221 104.689 112.275 103.684C111.329 102.678 111.329 101.048 112.275 100.042L114.057 98.1482L112.275 96.2541C111.329 95.2485 111.329 93.6181 112.275 92.6126ZM7.38593 130.89C7.38593 129.509 8.50521 128.39 9.88593 128.39L119.125 128.39C120.506 128.39 121.625 129.509 121.625 130.89C121.625 132.271 120.506 133.39 119.125 133.39L9.88593 133.39C8.50521 133.39 7.38593 132.271 7.38593 130.89ZM7.38593 143.499C7.38593 142.118 8.50521 140.999 9.88593 140.999L119.125 140.999C120.506 140.999 121.625 142.118 121.625 143.499C121.625 144.879 120.506 145.999 119.125 145.999L9.88593 145.999C8.50521 145.999 7.38593 144.879 7.38593 143.499ZM9.88593 153.607C8.50521 153.607 7.38593 154.726 7.38593 156.107C7.38593 157.488 8.50521 158.607 9.88593 158.607L119.125 158.607C120.506 158.607 121.625 157.488 121.625 156.107C121.625 154.726 120.506 153.607 119.125 153.607L9.88593 153.607ZM9.3916 177.122C9.3916 172.479 13.155 168.716 17.7974 168.716H111.214C115.856 168.716 119.62 172.479 119.62 177.122C119.62 181.764 115.856 185.527 111.214 185.527H17.7974C13.155 185.527 9.3916 181.764 9.3916 177.122Z" fill="#141414"/>
</g>
</g>
</svg>
